<svg width="24" height="22" viewBox="0 0 24 22" fill="none" xmlns="http://www.w3.org/2000/svg">
<path d="M3.25 11V1M20.75 21V17.25M3.25 21V16M20.75 12.25V1M12 4.75V1M12 21V9.75" stroke="black" stroke-width="1.25" stroke-linecap="round"/>
<path d="M3.25 16C4.63071 16 5.75 14.8807 5.75 13.5C5.75 12.1193 4.63071 11 3.25 11C1.86929 11 0.75 12.1193 0.75 13.5C0.75 14.8807 1.86929 16 3.25 16Z" stroke="black" stroke-width="1.25" stroke-linecap="round"/>
<path d="M12 9.75C13.3807 9.75 14.5 8.63071 14.5 7.25C14.5 5.86929 13.3807 4.75 12 4.75C10.6193 4.75 9.5 5.86929 9.5 7.25C9.5 8.63071 10.6193 9.75 12 9.75Z" stroke="black" stroke-width="1.25" stroke-linecap="round"/>
<path d="M20.75 17.25C22.1307 17.25 23.25 16.1307 23.25 14.75C23.25 13.3693 22.1307 12.25 20.75 12.25C19.3693 12.25 18.25 13.3693 18.25 14.75C18.25 16.1307 19.3693 17.25 20.75 17.25Z" stroke="black" stroke-width="1.25" stroke-linecap="round"/>
</svg>
